<svg width="1200" height="640" viewBox="0 0 1200 640" fill="none" xmlns="http://www.w3.org/2000/svg">
  <defs>
    <linearGradient id="bg" x1="78" y1="42" x2="1122" y2="606" gradientUnits="userSpaceOnUse">
      <stop stop-color="#0B1220"/>
      <stop offset="1" stop-color="#111827"/>
    </linearGradient>
    <linearGradient id="card" x1="0" y1="0" x2="320" y2="180" gradientUnits="userSpaceOnUse">
      <stop stop-color="#13243A"/>
      <stop offset="1" stop-color="#0A1423"/>
    </linearGradient>
    <linearGradient id="accent" x1="0" y1="0" x2="1" y2="1">
      <stop stop-color="#34D399"/>
      <stop offset="1" stop-color="#38BDF8"/>
    </linearGradient>
    <filter id="shadow" x="-20%" y="-20%" width="140%" height="140%">
      <feDropShadow dx="0" dy="20" stdDeviation="18" flood-color="#020617" flood-opacity="0.34"/>
    </filter>
  </defs>

  <rect width="1200" height="640" rx="28" fill="url(#bg)"/>
  <circle cx="1054" cy="106" r="174" fill="#22C55E" opacity="0.08"/>
  <circle cx="952" cy="510" r="184" fill="#38BDF8" opacity="0.08"/>

  <rect x="58" y="56" width="180" height="38" rx="19" fill="#08111F" stroke="#34D399" stroke-opacity="0.5"/>
  <text x="82" y="80" fill="#CCFBF1" font-family="Arial, Helvetica, sans-serif" font-size="18" font-weight="800">VECTOR + MCP + CLI</text>

  <text x="58" y="160" fill="#F8FAFC" font-family="Arial, Helvetica, sans-serif" font-size="58" font-weight="800">SEO Vector Snapshot</text>
  <text x="58" y="210" fill="#9FB0C3" font-family="Arial, Helvetica, sans-serif" font-size="22">Portable retrieval for Codex, Claude Code, OpenClaw, and shell-first agents.</text>
  <text x="58" y="244" fill="#9FB0C3" font-family="Arial, Helvetica, sans-serif" font-size="22">Query the same SEO memory through CLI, skills, or native MCP tools.</text>

  <rect x="58" y="284" width="108" height="34" rx="17" fill="#0D1B2C" stroke="#34D399" stroke-opacity="0.45"/>
  <text x="91" y="306" fill="#D1FAE5" font-family="Arial, Helvetica, sans-serif" font-size="16" font-weight="700">CLI</text>

  <rect x="178" y="284" width="118" height="34" rx="17" fill="#0D1B2C" stroke="#38BDF8" stroke-opacity="0.45"/>
  <text x="210" y="306" fill="#E0F2FE" font-family="Arial, Helvetica, sans-serif" font-size="16" font-weight="700">MCP</text>

  <rect x="308" y="284" width="150" height="34" rx="17" fill="#0D1B2C" stroke="#A78BFA" stroke-opacity="0.45"/>
  <text x="336" y="306" fill="#EDE9FE" font-family="Arial, Helvetica, sans-serif" font-size="16" font-weight="700">Claude Code</text>

  <rect x="470" y="284" width="134" height="34" rx="17" fill="#0D1B2C" stroke="#F59E0B" stroke-opacity="0.45"/>
  <text x="500" y="306" fill="#FEF3C7" font-family="Arial, Helvetica, sans-serif" font-size="16" font-weight="700">Codex</text>

  <rect x="58" y="338" width="236" height="122" rx="22" fill="url(#card)" stroke="#34D399" stroke-opacity="0.25" filter="url(#shadow)"/>
  <text x="84" y="374" fill="#94A3B8" font-family="Arial, Helvetica, sans-serif" font-size="18">Chunks</text>
  <text x="84" y="430" fill="#F8FAFC" font-family="Arial, Helvetica, sans-serif" font-size="54" font-weight="800">2349</text>

  <rect x="318" y="338" width="236" height="122" rx="22" fill="url(#card)" stroke="#38BDF8" stroke-opacity="0.25" filter="url(#shadow)"/>
  <text x="344" y="374" fill="#94A3B8" font-family="Arial, Helvetica, sans-serif" font-size="18">Tools Exposed</text>
  <text x="344" y="430" fill="#F8FAFC" font-family="Arial, Helvetica, sans-serif" font-size="54" font-weight="800">5</text>

  <rect x="58" y="482" width="236" height="110" rx="22" fill="url(#card)" stroke="#F59E0B" stroke-opacity="0.25" filter="url(#shadow)"/>
  <text x="84" y="518" fill="#94A3B8" font-family="Arial, Helvetica, sans-serif" font-size="18">Path Priors</text>
  <text x="84" y="568" fill="#F8FAFC" font-family="Arial, Helvetica, sans-serif" font-size="48" font-weight="800">345</text>

  <rect x="318" y="482" width="236" height="110" rx="22" fill="url(#card)" stroke="#A78BFA" stroke-opacity="0.25" filter="url(#shadow)"/>
  <text x="344" y="518" fill="#94A3B8" font-family="Arial, Helvetica, sans-serif" font-size="18">Role Bundles</text>
  <text x="344" y="568" fill="#F8FAFC" font-family="Arial, Helvetica, sans-serif" font-size="48" font-weight="800">190</text>

  <rect x="666" y="118" width="448" height="426" rx="28" fill="#0B1220" stroke="#243244" filter="url(#shadow)"/>
  <text x="700" y="164" fill="#E2E8F0" font-family="Arial, Helvetica, sans-serif" font-size="24" font-weight="800">Access Modes</text>

  <rect x="700" y="194" width="152" height="70" rx="18" fill="#052E2B" stroke="#34D399"/>
  <text x="744" y="237" fill="#D1FAE5" font-family="Arial, Helvetica, sans-serif" font-size="22" font-weight="700">CLI</text>

  <rect x="880" y="194" width="152" height="70" rx="18" fill="#082F49" stroke="#38BDF8"/>
  <text x="922" y="237" fill="#E0F2FE" font-family="Arial, Helvetica, sans-serif" font-size="22" font-weight="700">MCP</text>

  <rect x="700" y="294" width="152" height="70" rx="18" fill="#1E1B4B" stroke="#A78BFA"/>
  <text x="714" y="337" fill="#EDE9FE" font-family="Arial, Helvetica, sans-serif" font-size="22" font-weight="700">Claude Skills</text>

  <rect x="880" y="294" width="152" height="70" rx="18" fill="#422006" stroke="#F59E0B"/>
  <text x="916" y="337" fill="#FEF3C7" font-family="Arial, Helvetica, sans-serif" font-size="22" font-weight="700">Task Packs</text>

  <rect x="786" y="408" width="160" height="72" rx="20" fill="url(#accent)"/>
  <text x="827" y="452" fill="#051721" font-family="Arial, Helvetica, sans-serif" font-size="26" font-weight="800">DB CORE</text>

  <path d="M852 229H916" stroke="#34D399" stroke-width="4"/>
  <path d="M956 229H880" stroke="#38BDF8" stroke-width="4"/>
  <path d="M852 329H916" stroke="#A78BFA" stroke-width="4"/>
  <path d="M956 329H880" stroke="#F59E0B" stroke-width="4"/>
  <path d="M866 364V408" stroke="#E2E8F0" stroke-width="4"/>
  <path d="M866 480V516" stroke="#E2E8F0" stroke-width="4" opacity="0"/>

  <text x="700" y="576" fill="#94A3B8" font-family="Arial, Helvetica, sans-serif" font-size="18">One portable snapshot, multiple agent access layers.</text>
</svg>
