<svg width="1200" height="420" viewBox="0 0 1200 420" fill="none" xmlns="http://www.w3.org/2000/svg">
  <rect width="1200" height="420" rx="24" fill="#F8FAFC"/>
  <rect x="36" y="34" width="1128" height="352" rx="22" fill="#FFFFFF" stroke="#E2E8F0"/>
  <text x="64" y="82" fill="#0F172A" font-family="Arial, Helvetica, sans-serif" font-size="30" font-weight="800">How the snapshot works</text>
  <text x="64" y="114" fill="#64748B" font-family="Arial, Helvetica, sans-serif" font-size="18">Curated SEO memory becomes a portable retrieval layer you can move and query anywhere.</text>

  <rect x="64" y="158" width="220" height="164" rx="22" fill="#ECFDF5" stroke="#A7F3D0"/>
  <text x="90" y="197" fill="#065F46" font-family="Arial, Helvetica, sans-serif" font-size="22" font-weight="700">1. Sources</text>
  <text x="90" y="232" fill="#065F46" font-family="Arial, Helvetica, sans-serif" font-size="18">DEJAN</text>
  <text x="90" y="258" fill="#065F46" font-family="Arial, Helvetica, sans-serif" font-size="18">Google docs</text>
  <text x="90" y="284" fill="#065F46" font-family="Arial, Helvetica, sans-serif" font-size="18">Practitioner notes</text>

  <rect x="342" y="158" width="240" height="164" rx="22" fill="#EFF6FF" stroke="#BFDBFE"/>
  <text x="368" y="197" fill="#1D4ED8" font-family="Arial, Helvetica, sans-serif" font-size="22" font-weight="700">2. Memory Layer</text>
  <text x="368" y="232" fill="#1E3A8A" font-family="Arial, Helvetica, sans-serif" font-size="18">curated markdown</text>
  <text x="368" y="258" fill="#1E3A8A" font-family="Arial, Helvetica, sans-serif" font-size="18">router notes</text>
  <text x="368" y="284" fill="#1E3A8A" font-family="Arial, Helvetica, sans-serif" font-size="18">skill priors</text>

  <rect x="642" y="158" width="228" height="164" rx="22" fill="#F8FAFC" stroke="#CBD5E1"/>
  <text x="668" y="197" fill="#0F172A" font-family="Arial, Helvetica, sans-serif" font-size="22" font-weight="700">3. Snapshot DB</text>
  <text x="668" y="232" fill="#334155" font-family="Arial, Helvetica, sans-serif" font-size="18">`squad_memory.db`</text>
  <text x="668" y="258" fill="#334155" font-family="Arial, Helvetica, sans-serif" font-size="18">portable export</text>
  <text x="668" y="284" fill="#334155" font-family="Arial, Helvetica, sans-serif" font-size="18">ready to query</text>

  <rect x="928" y="158" width="196" height="164" rx="22" fill="#FFF7ED" stroke="#FDBA74"/>
  <text x="954" y="197" fill="#9A3412" font-family="Arial, Helvetica, sans-serif" font-size="22" font-weight="700">4. Output</text>
  <text x="954" y="232" fill="#9A3412" font-family="Arial, Helvetica, sans-serif" font-size="18">query results</text>
  <text x="954" y="258" fill="#9A3412" font-family="Arial, Helvetica, sans-serif" font-size="18">skill routing</text>
  <text x="954" y="284" fill="#9A3412" font-family="Arial, Helvetica, sans-serif" font-size="18">next-step decisions</text>

  <path d="M290 240H330" stroke="#34D399" stroke-width="4" stroke-linecap="round"/>
  <path d="M588 240H630" stroke="#60A5FA" stroke-width="4" stroke-linecap="round"/>
  <path d="M876 240H916" stroke="#F59E0B" stroke-width="4" stroke-linecap="round"/>
  <path d="M321 226L338 240L321 254" stroke="#34D399" stroke-width="4" stroke-linecap="round" stroke-linejoin="round"/>
  <path d="M621 226L638 240L621 254" stroke="#60A5FA" stroke-width="4" stroke-linecap="round" stroke-linejoin="round"/>
  <path d="M907 226L924 240L907 254" stroke="#F59E0B" stroke-width="4" stroke-linecap="round" stroke-linejoin="round"/>
</svg>
